<svg width="48" height="48" viewBox="0 0 48 48" fill="none" xmlns="http://www.w3.org/2000/svg">
<path fill-rule="evenodd" clip-rule="evenodd" d="M13.287 10.469L13.4142 10.5858L24 21.171L34.5858 10.5858C35.3668 9.80474 36.6332 9.80474 37.4142 10.5858C38.1542 11.3257 38.1931 12.5012 37.531 13.287L37.4142 13.4142L26.829 24L37.4142 34.5858C38.1953 35.3668 38.1953 36.6332 37.4142 37.4142C36.6743 38.1542 35.4988 38.1931 34.713 37.531L34.5858 37.4142L24 26.829L13.4142 37.4142C12.6332 38.1953 11.3668 38.1953 10.5858 37.4142C9.84585 36.6743 9.8069 35.4988 10.469 34.713L10.5858 34.5858L21.171 24L10.5858 13.4142C9.80474 12.6332 9.80474 11.3668 10.5858 10.5858C11.3257 9.84585 12.5012 9.8069 13.287 10.469Z" fill="#0061FF"/>
</svg>
