<svg width="56" height="56" viewBox="0 0 56 56" fill="none" xmlns="http://www.w3.org/2000/svg">
<path fill-rule="evenodd" clip-rule="evenodd" d="M23.3333 32.6665L10.8889 32.6665C7.11417 32.6665 4.66667 31.4314 4.66667 27.9998C4.66667 24.5683 7.11417 23.3332 10.8889 23.3332L21.7778 23.3332C22.7223 23.3332 23.3333 21.8585 23.3333 20.9998C23.3333 20.1412 22.7223 18.6665 21.7778 18.6665H10.2667C4.6046 18.6665 0 22.8525 0 27.9998C0 33.1472 4.6046 37.3332 10.2667 37.3332H23.3333C23.3333 38.1109 23.3333 35.8601 23.3333 34.9998C23.3333 34.1396 23.3333 31.1109 23.3333 32.6665Z" fill="white"/>
<path d="M32.6666 45.1111V34.2222C32.6666 33.2777 34.1398 32.6667 35 32.6667C35.8602 32.6667 37.3333 33.2777 37.3333 34.2222V45.7333C37.3333 51.3954 33.1473 56 28 56C22.8527 56 18.6667 51.3954 18.6667 45.7333V44.3333C17.2982 44.3333 18.0421 44.3333 19.0646 44.3333H19.3063H19.4341L21 44.3333H23.3333V45.1111C23.3333 48.8858 24.5684 51.3333 28 51.3333C31.4315 51.3333 32.6666 48.8858 32.6666 45.1111Z" fill="white"/>
<path fill-rule="evenodd" clip-rule="evenodd" d="M34.2222 23.3334L45.1111 23.3334C48.8858 23.3334 51.3333 24.5685 51.3333 28.0001C51.3333 31.4317 48.8858 32.6668 45.1111 32.6668H32.6667C32.6667 31.889 32.6667 34.1414 32.6667 35.0001C32.6667 35.8588 32.6667 39.5001 32.6667 37.3334H45.7333C51.3954 37.3334 56 33.1474 56 28.0001C56 22.8528 51.3954 18.6668 45.7333 18.6668L34.2222 18.6668C33.2777 18.6668 32.6667 20.1399 32.6667 21.0001C32.6667 21.8603 33.2777 23.3334 34.2222 23.3334Z" fill="white"/>
<path fill-rule="evenodd" clip-rule="evenodd" d="M23.3333 23.3333L23.3333 10.8889C23.3333 7.11417 24.5684 4.66666 27.9999 4.66666C31.4315 4.66666 32.6666 7.11417 32.6666 10.8889L32.6666 23.3333C34.9999 23.3333 34.1413 23.3333 34.9999 23.3333C35.8586 23.3333 37.3333 22.7223 37.3333 21.7778L37.3333 10.2667C37.3333 4.6046 33.1473 0 27.9999 0C22.8526 0 18.6666 4.6046 18.6666 10.2667V21.7778C18.6666 22.7223 20.1397 23.3333 20.9999 23.3333C21.8601 23.3333 24.8888 23.3333 23.3333 23.3333Z" fill="white"/>
</svg>
